<?xml version="1.0" encoding="utf-8"?>
<!-- Generator: Adobe Illustrator 22.0.1, SVG Export Plug-In . SVG Version: 6.00 Build 0)  -->
<svg version="1.1" id="Layer_1" xmlns="http://www.w3.org/2000/svg" xmlns:xlink="http://www.w3.org/1999/xlink" x="0px" y="0px"
	 viewBox="0 0 53 53" style="enable-background:new 0 0 53 53;" xml:space="preserve">
<style type="text/css">
	.st0{fill:#FFFFFF;}
	.st1{fill:#DDDDDD;}
	.st2{fill:#283E42;}
	.st3{fill:#5AE4A7;}
	.st4{fill:#50D695;}
	.st5{fill:#DBDBDB;}
	.st6{fill:#F9CE95;}
	.st7{fill:#FFDDAB;}
	.st8{fill:#C9C9C9;}
	.st9{fill:#22373A;}
	.st10{fill:#4BC98C;}
</style>
<g>
	<g>
		<path class="st0" d="M41.4727173,7.0799561v38.8400269c0,2.5300293-2.0599976,4.5800171-4.5900269,4.5800171H7.15271
			c-2.5400391,0-4.5900269-2.0499878-4.5900269-4.5800171V7.0799561C2.5626831,4.5499878,4.6126709,2.5,7.15271,2.5h29.7299805
			C39.4127197,2.5,41.4727173,4.5499878,41.4727173,7.0799561z"/>
		<path d="M36.8828125,51H7.152832C4.3461914,51,2.0625,48.7207031,2.0625,45.9199219V7.0800781
			C2.0625,4.2792969,4.3461914,2,7.152832,2h29.7299805c2.8066406,0,5.0898438,2.2792969,5.0898438,5.0800781v38.8398438
			C41.9726563,48.7207031,39.6894531,51,36.8828125,51z M7.152832,3C4.8974609,3,3.0625,4.8300781,3.0625,7.0800781v38.8398438
			C3.0625,48.1699219,4.8974609,50,7.152832,50h29.7299805c2.2553711,0,4.0898438-1.8300781,4.0898438-4.0800781V7.0800781
			c0-2.25-1.8344727-4.0800781-4.0898438-4.0800781H7.152832z"/>
	</g>
	<g>
		<g>
			<g>
				<path d="M37.4707031,17.0361328h-12.003418c-0.2763672,0-0.5-0.2236328-0.5-0.5s0.2236328-0.5,0.5-0.5h12.003418
					c0.2763672,0,0.5,0.2236328,0.5,0.5S37.7470703,17.0361328,37.4707031,17.0361328z"/>
			</g>
			<g>
				<path d="M22.8422852,17.0361328h-3.9584961c-0.2763672,0-0.5-0.2236328-0.5-0.5s0.2236328-0.5,0.5-0.5h3.9584961
					c0.2763672,0,0.5,0.2236328,0.5,0.5S23.1186523,17.0361328,22.8422852,17.0361328z"/>
			</g>
			<g>
				<path d="M37.4707031,20.3691406h-3.1699219c-0.2763672,0-0.5-0.2236328-0.5-0.5s0.2236328-0.5,0.5-0.5h3.1699219
					c0.2763672,0,0.5,0.2236328,0.5,0.5S37.7470703,20.3691406,37.4707031,20.3691406z"/>
			</g>
			<g>
				<path d="M32.3837891,20.3691406h-13.5c-0.2763672,0-0.5-0.2236328-0.5-0.5s0.2236328-0.5,0.5-0.5h13.5
					c0.2763672,0,0.5,0.2236328,0.5,0.5S32.6601563,20.3691406,32.3837891,20.3691406z"/>
			</g>
			<g>
				<path d="M30.8837891,23.7021484h-3.125c-0.2763672,0-0.5-0.2236328-0.5-0.5s0.2236328-0.5,0.5-0.5h3.125
					c0.2763672,0,0.5,0.2236328,0.5,0.5S31.1601563,23.7021484,30.8837891,23.7021484z"/>
			</g>
			<g>
				<path d="M25.4672852,23.7021484h-6.5834961c-0.2763672,0-0.5-0.2236328-0.5-0.5s0.2236328-0.5,0.5-0.5h6.5834961
					c0.2763672,0,0.5,0.2236328,0.5,0.5S25.7436523,23.7021484,25.4672852,23.7021484z"/>
			</g>
		</g>
	</g>
	<g>
		<g>
			<g>
				<path d="M37.4707031,28.2861328h-12.003418c-0.2763672,0-0.5-0.2236328-0.5-0.5s0.2236328-0.5,0.5-0.5h12.003418
					c0.2763672,0,0.5,0.2236328,0.5,0.5S37.7470703,28.2861328,37.4707031,28.2861328z"/>
			</g>
			<g>
				<path d="M22.8422852,28.2861328h-3.9584961c-0.2763672,0-0.5-0.2236328-0.5-0.5s0.2236328-0.5,0.5-0.5h3.9584961
					c0.2763672,0,0.5,0.2236328,0.5,0.5S23.1186523,28.2861328,22.8422852,28.2861328z"/>
			</g>
			<g>
				<path d="M37.4707031,31.6191406h-3.1699219c-0.2763672,0-0.5-0.2236328-0.5-0.5s0.2236328-0.5,0.5-0.5h3.1699219
					c0.2763672,0,0.5,0.2236328,0.5,0.5S37.7470703,31.6191406,37.4707031,31.6191406z"/>
			</g>
			<g>
				<path d="M32.3837891,31.6191406h-13.5c-0.2763672,0-0.5-0.2236328-0.5-0.5s0.2236328-0.5,0.5-0.5h13.5
					c0.2763672,0,0.5,0.2236328,0.5,0.5S32.6601563,31.6191406,32.3837891,31.6191406z"/>
			</g>
			<g>
				<path d="M30.8837891,34.9521484h-3.125c-0.2763672,0-0.5-0.2236328-0.5-0.5s0.2236328-0.5,0.5-0.5h3.125
					c0.2763672,0,0.5,0.2236328,0.5,0.5S31.1601563,34.9521484,30.8837891,34.9521484z"/>
			</g>
			<g>
				<path d="M25.4672852,34.9521484h-6.5834961c-0.2763672,0-0.5-0.2236328-0.5-0.5s0.2236328-0.5,0.5-0.5h6.5834961
					c0.2763672,0,0.5,0.2236328,0.5,0.5S25.7436523,34.9521484,25.4672852,34.9521484z"/>
			</g>
		</g>
	</g>
	<g>
		<g>
			<path class="st1" d="M14.8226929,17.1499634v5.4400024C14.8226929,23.3599854,14.1826782,24,13.4127197,24H7.9627075
				c-0.7700195,0-1.4000244-0.6400146-1.4000244-1.4100342v-5.4400024c0-0.7799683,0.6300049-1.4099731,1.4000244-1.4099731
				h5.4500122C14.1826782,15.7399902,14.8226929,16.3699951,14.8226929,17.1499634z"/>
			<path d="M13.4125977,24.5h-5.449707C6.9150391,24.5,6.0625,23.6435547,6.0625,22.5898438v-5.4394531
				c0-1.0537109,0.8525391-1.9101563,1.9003906-1.9101563h5.449707c1.0532227,0,1.9101563,0.8564453,1.9101563,1.9101563v5.4394531
				C15.3227539,23.6435547,14.4658203,24.5,13.4125977,24.5z M7.9628906,16.2402344
				c-0.496582,0-0.9003906,0.4082031-0.9003906,0.9101563v5.4394531C7.0625,23.0830078,7.4746094,23.5,7.9628906,23.5h5.449707
				c0.4931641,0,0.9101563-0.4169922,0.9101563-0.9101563v-5.4394531c0-0.5019531-0.4082031-0.9101563-0.9101563-0.9101563
				H7.9628906z"/>
		</g>
		<g>
			<path class="st1" d="M14.8226929,28.3999634v5.4400024c0,0.7700195-0.6400146,1.4100342-1.4099731,1.4100342H7.9627075
				c-0.7700195,0-1.4000244-0.6400146-1.4000244-1.4100342v-5.4400024c0-0.7799683,0.6300049-1.4099731,1.4000244-1.4099731
				h5.4500122C14.1826782,26.9899902,14.8226929,27.6199951,14.8226929,28.3999634z"/>
			<path d="M13.4125977,35.75h-5.449707C6.9150391,35.75,6.0625,34.8935547,6.0625,33.8398438v-5.4394531
				c0-1.0537109,0.8525391-1.9101563,1.9003906-1.9101563h5.449707c1.0532227,0,1.9101563,0.8564453,1.9101563,1.9101563v5.4394531
				C15.3227539,34.8935547,14.4658203,35.75,13.4125977,35.75z M7.9628906,27.4902344
				c-0.496582,0-0.9003906,0.4082031-0.9003906,0.9101563v5.4394531C7.0625,34.3330078,7.4746094,34.75,7.9628906,34.75h5.449707
				c0.4931641,0,0.9101563-0.4169922,0.9101563-0.9101563v-5.4394531c0-0.5019531-0.4082031-0.9101563-0.9101563-0.9101563
				H7.9628906z"/>
		</g>
		<g>
			<path class="st1" d="M14.8226929,39.6499634v5.4400024c0,0.7700195-0.6400146,1.4100342-1.4099731,1.4100342H7.9627075
				c-0.7700195,0-1.4000244-0.6400146-1.4000244-1.4100342v-5.4400024c0-0.7799683,0.6300049-1.4099731,1.4000244-1.4099731
				h5.4500122C14.1826782,38.2399902,14.8226929,38.8699951,14.8226929,39.6499634z"/>
			<path d="M13.4125977,47h-5.449707C6.9150391,47,6.0625,46.1435547,6.0625,45.0898438v-5.4394531
				c0-1.0537109,0.8525391-1.9101563,1.9003906-1.9101563h5.449707c1.0532227,0,1.9101563,0.8564453,1.9101563,1.9101563v5.4394531
				C15.3227539,46.1435547,14.4658203,47,13.4125977,47z M7.9628906,38.7402344
				c-0.496582,0-0.9003906,0.4082031-0.9003906,0.9101563v5.4394531C7.0625,45.5830078,7.4746094,46,7.9628906,46h5.449707
				c0.4931641,0,0.9101563-0.4169922,0.9101563-0.9101563v-5.4394531c0-0.5019531-0.4082031-0.9101563-0.9101563-0.9101563
				H7.9628906z"/>
		</g>
		<g>
			<g>
				<path d="M37.4707031,39.5361328h-12.003418c-0.2763672,0-0.5-0.2236328-0.5-0.5s0.2236328-0.5,0.5-0.5h12.003418
					c0.2763672,0,0.5,0.2236328,0.5,0.5S37.7470703,39.5361328,37.4707031,39.5361328z"/>
			</g>
			<g>
				<path d="M22.8422852,39.5361328h-3.9584961c-0.2763672,0-0.5-0.2236328-0.5-0.5s0.2236328-0.5,0.5-0.5h3.9584961
					c0.2763672,0,0.5,0.2236328,0.5,0.5S23.1186523,39.5361328,22.8422852,39.5361328z"/>
			</g>
			<g>
				<path d="M37.4707031,42.8691406h-3.1699219c-0.2763672,0-0.5-0.2236328-0.5-0.5s0.2236328-0.5,0.5-0.5h3.1699219
					c0.2763672,0,0.5,0.2236328,0.5,0.5S37.7470703,42.8691406,37.4707031,42.8691406z"/>
			</g>
			<g>
				<path d="M32.3837891,42.8691406h-13.5c-0.2763672,0-0.5-0.2236328-0.5-0.5s0.2236328-0.5,0.5-0.5h13.5
					c0.2763672,0,0.5,0.2236328,0.5,0.5S32.6601563,42.8691406,32.3837891,42.8691406z"/>
			</g>
			<g>
				<path d="M30.8837891,46.2021484h-3.125c-0.2763672,0-0.5-0.2236328-0.5-0.5s0.2236328-0.5,0.5-0.5h3.125
					c0.2763672,0,0.5,0.2236328,0.5,0.5S31.1601563,46.2021484,30.8837891,46.2021484z"/>
			</g>
			<g>
				<path d="M25.4672852,46.2021484h-6.5834961c-0.2763672,0-0.5-0.2236328-0.5-0.5s0.2236328-0.5,0.5-0.5h6.5834961
					c0.2763672,0,0.5,0.2236328,0.5,0.5S25.7436523,46.2021484,25.4672852,46.2021484z"/>
			</g>
		</g>
	</g>
	<g>
		<path class="st2" d="M32.8626709,7.6900024v2.9299927c0,0.6599731-0.5299683,1.1900024-1.1900024,1.1900024H12.3626709
			c-0.6499634,0-1.1900024-0.5300293-1.1900024-1.1900024V7.6900024C11.1726685,7.0299683,11.7127075,6.5,12.3626709,6.5h19.3099976
			C32.3327026,6.5,32.8626709,7.0299683,32.8626709,7.6900024z"/>
		<path d="M31.6728516,12.3095703H12.362793c-0.9316406,0-1.6899414-0.7578125-1.6899414-1.6894531V7.6904297
			C10.6728516,6.7587891,11.4311523,6,12.362793,6h19.3100586c0.9316406,0,1.6899414,0.7587891,1.6899414,1.6904297v2.9296875
			C33.362793,11.5517578,32.6044922,12.3095703,31.6728516,12.3095703z M12.362793,7
			c-0.3803711,0-0.6899414,0.3095703-0.6899414,0.6904297v2.9296875c0,0.3798828,0.3095703,0.6894531,0.6899414,0.6894531
			h19.3100586c0.3867188,0,0.6899414-0.3027344,0.6899414-0.6894531V7.6904297C32.362793,7.3095703,32.0532227,7,31.6728516,7
			H12.362793z"/>
	</g>
	<g>
		<path d="M9.9233398,21.5810547c-0.1328125,0-0.2597656-0.0527344-0.3535156-0.1464844l-1.0097656-1.0097656
			c-0.1953125-0.1953125-0.1953125-0.5117188,0-0.7070313s0.5117188-0.1953125,0.7070313,0l0.65625,0.65625l2.1879883-2.1884766
			c0.1953125-0.1953125,0.5117188-0.1953125,0.7070313,0s0.1953125,0.5117188,0,0.7070313l-2.5415039,2.5419922
			C10.1831055,21.5283203,10.0561523,21.5810547,9.9233398,21.5810547z"/>
	</g>
	<g>
		<path d="M9.9233398,32.8896484c-0.1279297,0-0.2558594-0.0488281-0.3535156-0.1464844l-1.0097656-1.0097656
			c-0.1953125-0.1953125-0.1953125-0.5117188,0-0.7070313s0.5117188-0.1953125,0.7070313,0l0.65625,0.65625l2.1879883-2.1875
			c0.1953125-0.1953125,0.5117188-0.1953125,0.7070313,0s0.1953125,0.5117188,0,0.7070313l-2.5415039,2.5410156
			C10.1791992,32.8408203,10.0512695,32.8896484,9.9233398,32.8896484z"/>
	</g>
	<g>
		<path d="M9.9233398,44.1992188c-0.1328125,0-0.2597656-0.0527344-0.3535156-0.1464844l-1.0097656-1.0097656
			c-0.1953125-0.1953125-0.1953125-0.5117188,0-0.7070313s0.5117188-0.1953125,0.7070313,0l0.65625,0.65625l2.1879883-2.1884766
			c0.1953125-0.1953125,0.5117188-0.1953125,0.7070313,0s0.1953125,0.5117188,0,0.7070313l-2.5415039,2.5419922
			C10.1831055,44.1464844,10.0561523,44.1992188,9.9233398,44.1992188z"/>
	</g>
	<g>
		<circle class="st3" cx="41.0314827" cy="41.0915031" r="9.40625"/>
		<path d="M41.03125,50.9980469c-5.4624023,0-9.90625-4.4443359-9.90625-9.90625s4.4438477-9.90625,9.90625-9.90625
			s9.90625,4.4443359,9.90625,9.90625S46.4936523,50.9980469,41.03125,50.9980469z M41.03125,32.1855469
			c-4.9111328,0-8.90625,3.9951172-8.90625,8.90625s3.9951172,8.90625,8.90625,8.90625s8.90625-3.9951172,8.90625-8.90625
			S45.9423828,32.1855469,41.03125,32.1855469z"/>
	</g>
	<g>
		<circle class="st0" cx="41.0316467" cy="41.0915031" r="6.6390676"/>
	</g>
	<g>
		<circle class="st3" cx="41.0316467" cy="41.0915031" r="3.2493649"/>
	</g>
	<g>
		<line class="st3" x1="41.0314827" y1="41.0915031" x2="48.2173538" y2="29.1644211"/>
		<path d="M41.0307617,41.5917969c-0.0878906,0-0.1767578-0.0234375-0.2573242-0.0712891
			c-0.2368164-0.1425781-0.3129883-0.4501953-0.1704102-0.6865234L47.7890625,28.90625
			c0.1420898-0.2373047,0.4487305-0.3125,0.6860352-0.1708984c0.2368164,0.1425781,0.3129883,0.4501953,0.1704102,0.6865234
			l-7.1860352,11.9277344C41.3657227,41.5058594,41.2001877,41.5917969,41.0307617,41.5917969z"/>
	</g>
	<g>
		<path d="M46.800293,31.9765625c-0.2260742,0-0.4311523-0.1542969-0.4858398-0.3837891l-0.5078125-2.1269531
			c-0.0639648-0.2685547,0.1015625-0.5380859,0.3701172-0.6025391c0.2705078-0.0664063,0.5390625,0.1015625,0.6025391,0.3701172
			l0.3916016,1.640625l1.6411133-0.3916016c0.2685547-0.0644531,0.5385742,0.1015625,0.6025391,0.3701172
			s-0.1015625,0.5380859-0.3701172,0.6025391l-2.1274414,0.5078125
			C46.8779297,31.9726563,46.8388672,31.9765625,46.800293,31.9765625z"/>
	</g>
</g>
</svg>
